<?xml version="1.0" encoding="UTF-8" standalone="no"?>
<!-- Created with Inkscape (http://www.inkscape.org/) -->

<svg
   xmlns:dc="http://purl.org/dc/elements/1.1/"
   xmlns:cc="http://creativecommons.org/ns#"
   xmlns:rdf="http://www.w3.org/1999/02/22-rdf-syntax-ns#"
   xmlns:svg="http://www.w3.org/2000/svg"
   xmlns="http://www.w3.org/2000/svg"
   xmlns:sodipodi="http://sodipodi.sourceforge.net/DTD/sodipodi-0.dtd"
   xmlns:inkscape="http://www.inkscape.org/namespaces/inkscape"
   version="1.1"
   width="744.09448"
   height="1052.3622"
   id="svg2"
   inkscape:version="0.48.2 r9819"
   sodipodi:docname="red-koala.svg">
  <sodipodi:namedview
     pagecolor="#ffffff"
     bordercolor="#666666"
     borderopacity="1"
     objecttolerance="10"
     gridtolerance="10"
     guidetolerance="10"
     inkscape:pageopacity="0"
     inkscape:pageshadow="2"
     inkscape:window-width="640"
     inkscape:window-height="480"
     id="namedview26"
     showgrid="false"
     inkscape:zoom="0.50332378"
     inkscape:cx="476.12273"
     inkscape:cy="572.78569"
     inkscape:window-x="38"
     inkscape:window-y="616"
     inkscape:window-maximized="0"
     inkscape:current-layer="svg2" />
  <defs
     id="defs4" />
  <metadata
     id="metadata7">
    <rdf:RDF>
      <cc:Work
         rdf:about="">
        <dc:format>image/svg+xml</dc:format>
        <dc:type
           rdf:resource="http://purl.org/dc/dcmitype/StillImage" />
        <dc:title></dc:title>
      </cc:Work>
    </rdf:RDF>
  </metadata>
  <g
     id="layer1"
     transform="translate(0.17560932,-0.17560932)">
    <path
       d=""
       id="path6167"
       style="fill:#ffffff;fill-opacity:1;fill-rule:nonzero;stroke:#000000;stroke-width:0.08838835;stroke-miterlimit:4;stroke-opacity:1;stroke-dasharray:none"
       inkscape:connector-curvature="0" />
    <path
       d="m 497.9857,1088.5424 c 0,-16.225 0.13752,-22.8625 0.30561,-14.75 0.16808,8.1125 0.16808,21.3875 0,29.5 -0.16809,8.1125 -0.30561,1.475 -0.30561,-14.75 z m 290.93182,18.5 c -0.002,-6.05 0.1606,-8.6539 0.36191,-5.7865 0.2013,2.8674 0.20315,7.8174 0.004,11 -0.19905,3.1826 -0.36376,0.8365 -0.36601,-5.2135 z m 17.08867,-37.5 c 0,-26.675 0.12889,-37.5875 0.28641,-24.25 0.15752,13.3375 0.15752,35.1625 0,48.5 -0.15752,13.3375 -0.28641,2.425 -0.28641,-24.25 z m 27.96202,27 c 0,-11.825 0.14466,-16.6625 0.32145,-10.75 0.1768,5.9125 0.1768,15.5875 0,21.5 -0.17679,5.9125 -0.32145,1.075 -0.32145,-10.75 z m -495.42476,10.5 c 1.29175,-1.375 2.57363,-2.5 2.84863,-2.5 0.275,0 -0.55688,1.125 -1.84863,2.5 -1.29175,1.375 -2.57363,2.5 -2.84863,2.5 -0.275,0 0.55688,-1.125 1.84863,-2.5 z m 68.27083,-7.1042 c 0.33229,-0.3322 1.19479,-0.3678 1.91667,-0.079 0.79773,0.3193 0.56078,0.5562 -0.60417,0.6042 -1.05416,0.043 -1.64479,-0.1929 -1.3125,-0.5252 z m 376.47917,-3.0581 c 0.6875,-0.2774 1.8125,-0.2774 2.5,0 0.6875,0.2774 0.125,0.5044 -1.25,0.5044 -1.375,0 -1.9375,-0.227 -1.25,-0.5044 z m -462.75,-2.8377 c 0.68469,-0.825 1.46989,-1.5 1.74489,-1.5 0.275,0 -0.0602,0.675 -0.74489,1.5 -0.68469,0.825 -1.46989,1.5 -1.74489,1.5 -0.275,0 0.0602,-0.675 0.74489,-1.5 z m 303.07895,-3.9167 c -0.0434,-1.0541 0.19293,-1.6447 0.52522,-1.3125 0.33229,0.3323 0.36781,1.1948 0.0789,1.9167 -0.31922,0.7977 -0.55618,0.5608 -0.60416,-0.6042 z m -281.80812,-4.1875 c 0.33229,-0.3322 1.19479,-0.3678 1.91667,-0.079 0.79773,0.3193 0.56078,0.5562 -0.60417,0.6042 -1.05416,0.043 -1.64479,-0.1929 -1.3125,-0.5252 z m 20.80812,-11.8125 c -0.0434,-1.0541 0.19292,-1.6447 0.52522,-1.3125 0.33229,0.3323 0.36781,1.1948 0.0789,1.9167 -0.31922,0.7977 -0.55618,0.5608 -0.60416,-0.6042 z m 0.0789,-7.5833 c 0,-1.375 0.22698,-1.9375 0.50439,-1.25 0.27741,0.6875 0.27741,1.8125 0,2.5 -0.27741,0.6875 -0.50439,0.125 -0.50439,-1.25 z m 477.84211,-13.5 c 0.68469,-0.825 1.46989,-1.5 1.74489,-1.5 0.275,0 -0.0602,0.675 -0.74489,1.5 -0.68469,0.825 -1.46989,1.5 -1.74489,1.5 -0.275,0 0.0602,-0.675 0.74489,-1.5 z m -588.60544,-20 c 0.002,-7.7 0.15853,-10.7178 0.34883,-6.7062 0.1903,4.0115 0.18902,10.3115 -0.003,14 -0.19189,3.6884 -0.34759,0.4062 -0.34603,-7.2938 z m 606,0 c 0.002,-7.7 0.15853,-10.7178 0.34883,-6.7062 0.1903,4.0115 0.18902,10.3115 -0.003,14 -0.19169,3.6884 -0.34739,0.4062 -0.34583,-7.2938 z m -585.39456,-1 c 1.29175,-1.375 2.57363,-2.5 2.84863,-2.5 0.275,0 -0.55688,1.125 -1.84863,2.5 -1.29175,1.375 -2.57363,2.5 -2.84863,2.5 -0.275,0 0.55688,-1.125 1.84863,-2.5 z m 454.75,-11.2322 c 2.3375,-0.2105 6.1625,-0.2105 8.5,0 2.3375,0.2105 0.425,0.3828 -4.25,0.3828 -4.675,0 -6.5875,-0.1723 -4.25,-0.3828 z m 43.96349,0 c 2.86742,-0.2013 7.81742,-0.2032 11,0 3.18258,0.1991 0.83651,0.3638 -5.21349,0.366 -6.05,0 -8.65393,-0.1606 -5.78651,-0.3619 z m 106.03651,-9.0063 c 3.9875,-0.1898 10.5125,-0.1898 14.5,0 3.9875,0.1898 0.725,0.3451 -7.25,0.3451 -7.975,0 -11.2375,-0.1553 -7.25,-0.3451 z M 454.81581,605.54241 c 0,-2.475 0.19502,-3.4875 0.43337,-2.25 0.23836,1.2375 0.23836,3.2625 0,4.5 -0.23835,1.2375 -0.43337,0.225 -0.43337,-2.25 z m -16.34805,-45.75 -2.42431,-2.75 2.75,2.42431 c 1.5125,1.33338 2.75,2.57088 2.75,2.75 0,0.78428 -0.8098,0.14598 -3.07569,-2.42431 z m 130.82569,-1.99507 c 5.0875,-0.18149 13.4125,-0.18149 18.5,0 5.0875,0.18149 0.925,0.32999 -9.25,0.32999 -10.175,0 -14.3375,-0.1485 -9.25,-0.32999 z m 159.5,-0.004 c 14.1625,-0.15649 37.3375,-0.15649 51.5,0 14.1625,0.15649 2.575,0.28452 -25.75,0.28452 -28.325,0 -39.9125,-0.12803 -25.75,-0.28452 z m 208.5,3e-5 c 13.8875,-0.15682 36.6125,-0.15682 50.5,0 13.88755,0.15682 2.525,0.28513 -25.25,0.28513 -27.775,0 -39.1375,-0.12831 -25.25,-0.28513 z M 388.81428,541.93824 c 0.33229,-0.33229 1.19479,-0.36781 1.91667,-0.0789 0.79773,0.31922 0.56078,0.55618 -0.60417,0.60416 -1.05416,0.0434 -1.64479,-0.19293 -1.3125,-0.52522 z"
       id="path6242"
       style="fill:#5f5b5b"
       inkscape:connector-curvature="0" />
    <path
       d="m 552.98651,1088.0424 c -4.5e-4,-16.5 0.13655,-23.3903 0.30444,-15.3118 0.16789,8.0785 0.16826,21.5785 8.2e-4,30 -0.16745,8.4215 -0.30481,1.8118 -0.30526,-14.6882 z m 54.80912,26 c -0.0111,-2.2 0.18461,-3.2177 0.4349,-2.2617 0.25029,0.9561 0.25937,2.7561 0.0202,4 -0.23919,1.244 -0.44398,0.4617 -0.45508,-1.7383 z m -105.25218,-86 c 0.68469,-0.825 1.46989,-1.5 1.74489,-1.5 0.275,0 -0.0602,0.675 -0.74489,1.5 -0.68469,0.825 -1.46989,1.5 -1.74489,1.5 -0.275,0 0.0602,-0.675 0.74489,-1.5 z m 41.40499,-0.75 -1.90499,-2.25 2.25,1.905 c 2.11444,1.7902 2.70524,2.595 1.90499,2.595 -0.18976,0 -1.20226,-1.0125 -2.25,-2.25 z m 117.86584,-7.3542 c 0.33229,-0.3322 1.19479,-0.3678 1.91667,-0.079 0.79773,0.3193 0.56078,0.5562 -0.60417,0.6042 -1.05416,0.043 -1.64479,-0.1929 -1.3125,-0.5252 z M 545.72943,857.7944 c 9.17729,-0.16487 24.47729,-0.16517 34,-6.6e-4 9.52271,0.16451 2.01402,0.29941 -16.68598,0.29977 -18.7,3.6e-4 -26.49131,-0.13424 -17.31402,-0.29911 z m 183.06402,-10e-4 c 14.1625,-0.15649 37.3375,-0.15649 51.5,0 14.1625,0.15649 2.575,0.28452 -25.75,0.28452 -28.325,0 -39.9125,-0.12803 -25.75,-0.28452 z m 208.5,3e-5 c 13.8875,-0.15682 36.6125,-0.15682 50.5,0 13.88745,0.15682 2.525,0.28513 -25.25,0.28513 -27.775,0 -39.1375,-0.12831 -25.25,-0.28513 z M 382.78179,541.85533 c 0.95609,-0.25029 2.75609,-0.25937 4,-0.0202 1.24391,0.23919 0.46166,0.44398 -1.73834,0.45508 -2.2,0.0111 -3.21775,-0.18461 -2.26166,-0.4349 z m 139.26166,-55.31292 c -1.5808,-1.65 -2.64918,-3 -2.37418,-3 0.275,0 1.79338,1.35 3.37418,3 1.5808,1.65 2.64918,3 2.37418,3 -0.275,0 -1.79338,-1.35 -3.37418,-3 z"
       id="path6236"
       style="fill:#292222"
       inkscape:connector-curvature="0" />
    <g
       id="g6312">
      <g
         id="g6286">
        <g
           transform="translate(43.475438,27.243334)"
           id="g6190">
          <g
             id="g6035"
             style="stroke:#000000;stroke-width:0.69999999;stroke-miterlimit:4;stroke-opacity:1;stroke-dasharray:none">
            <path
               d="m 230.00007,643.07523 c -3.43799,-0.73575 -5.99718,-1.74825 -5.68708,-2.25 0.3101,-0.50175 0.12499,-0.91227 -0.41135,-0.91227 -1.48706,0 -8.54066,-7.1481 -10.08081,-10.21587 -0.74992,-1.49373 -1.69468,-2.51118 -2.09947,-2.26101 -0.40479,0.25017 -1.34946,-0.32769 -2.09928,-1.28413 -1.2337,-1.57367 -1.19694,-1.60851 0.38669,-0.36655 1.82477,1.43109 2.46942,0.24698 0.78342,-1.43902 -0.99993,-0.99993 -5.85993,-14.40317 -6.50264,-17.93342 -0.20026,-1.1 -0.42292,-2 -0.49479,-2 -0.80622,0 -0.75379,-10.80804 0.0645,-13.29479 0.5963,-1.81214 1.42743,-5.63714 1.84696,-8.5 1.01816,-6.94791 1.28046,-7.7525 3.17755,-9.74688 0.89375,-0.93958 1.79375,-2.12857 2,-2.64219 0.6726,-1.67498 11.51235,-9.31614 13.21587,-9.31614 0.91252,0 1.65913,-0.46973 1.65913,-1.04384 0,-0.57411 0.5625,-0.95313 1.25,-0.84228 0.6875,0.11086 2.03333,-0.14096 2.99074,-0.5596 0.9574,-0.41863 3.9949,-0.56502 6.75,-0.32531 2.75509,0.23972 5.00926,0.0613 5.00926,-0.39656 0,-0.45783 0.47656,-0.83241 1.05902,-0.83241 0.58246,0 0.79485,0.42742 0.47199,0.94983 -0.51182,0.82814 2.33166,3.05017 3.90325,3.05017 1.48687,0 0.34183,-2.0101 -1.18426,-2.07895 -0.9625,-0.0434 -1.2463,-0.28632 -0.63067,-0.53977 0.80908,-0.3331 0.75814,-1.5092 -0.1838,-4.2432 -1.6748,-4.86113 -1.58978,-22.34502 0.14495,-29.80756 0.72638,-3.12478 1.11621,-6.01227 0.86629,-6.41664 -0.45531,-0.73672 3.57389,-13.97353 4.53969,-14.91388 0.28245,-0.275 1.38572,-2.21316 2.45172,-4.30703 1.066,-2.09387 2.94358,-4.89187 4.17239,-6.21777 1.22881,-1.32591 2.51101,-3.28292 2.84934,-4.3489 0.7171,-2.25937 11.83409,-14.1263 13.23359,-14.1263 0.52178,0 3.06923,-2.03183 5.661,-4.51518 l 4.7123,-4.51517 -3.47612,-3.57925 c -1.91186,-1.96858 -3.94674,-3.28838 -4.52194,-2.93288 -0.58125,0.35923 -0.84131,0.068 -0.58544,-0.65558 0.60298,-1.70518 -1.691,-4.6672 -3.5363,-4.56613 -5.13701,0.28137 -7.97051,-0.4819 -10.09204,-2.71853 -1.29523,-1.3655 -2.7246,-2.4905 -3.17639,-2.5 -1.88718,-0.0397 -8.08561,-8.54966 -7.23261,-9.92984 0.31483,-0.50941 -0.10671,-1.60534 -0.93677,-2.43539 -0.83005,-0.83006 -1.50919,-2.11633 -1.50919,-2.85838 0,-0.74205 -0.7875,-2.06805 -1.75,-2.94666 -5.45757,-4.98188 -7.84532,-8.79242 -10.76413,-17.17818 -2.03246,-5.83926 -2.92733,-9.89511 -2.46426,-11.16883 0.39992,-1.1 0.3336,-2.75804 -0.14738,-3.68453 -1.00661,-1.93897 0.14895,-5.54804 3.06731,-9.57991 1.08904,-1.50456 2.22871,-4.91121 2.53261,-7.57033 0.30389,-2.65913 1.24741,-5.52965 2.0967,-6.37894 0.8493,-0.84929 1.31621,-2.13823 1.03759,-2.8643 -0.32214,-0.83947 0.021,-1.11767 0.94249,-0.76407 0.98287,0.37716 1.44907,-0.12181 1.44907,-1.55093 0,-1.2555 0.63987,-2.10699 1.58333,-2.10699 0.87084,0 1.39046,-0.5625 1.15471,-1.25 -0.62048,-1.80954 5.44327,-8.54821 9.59822,-10.66652 3.70647,-1.88967 7.8224,-1.93142 20.16374,-0.20452 3.3,0.46176 6.15761,0.70779 6.35024,0.54673 0.19263,-0.16106 2.79027,1.02727 5.77254,2.64074 2.98226,1.61346 6.06164,2.93357 6.84306,2.93357 0.78141,0 2.09306,0.95986 2.91478,2.13302 0.99008,1.41354 2.17361,1.95531 3.50876,1.60616 1.1081,-0.28978 2.16007,-0.0908 2.33771,0.44209 0.19299,0.57898 3.38657,0.2344 7.93498,-0.85616 5.60405,-1.34367 9.90949,-1.69322 16.32165,-1.32511 4.79031,0.275 8.94555,0.11745 9.23386,-0.35012 0.73918,-1.19874 13.76024,0.44069 18.84022,2.37209 1.43552,0.54579 3.03342,0.73067 3.55089,0.41085 0.51748,-0.31981 0.81721,-0.0717 0.66609,0.55133 -0.15113,0.62304 1.41272,1.72847 3.47522,2.45649 2.0625,0.72803 3.75,1.09661 3.75,0.81908 0,-0.27754 0.675,0.0556 1.5,0.74028 1.03636,0.8601 1.5,0.89795 1.5,0.12244 0,-0.61734 0.6794,-1.12244 1.50979,-1.12244 0.83038,0 2.28039,-0.9 3.22224,-2 0.94185,-1.1 2.43486,-2 3.3178,-2 0.88295,0 4.49544,-1.18497 8.02776,-2.63327 8.46052,-3.46892 14.63942,-3.97669 17.37205,-1.42762 1.1277,1.05195 3.3242,2.22889 4.88112,2.61544 1.55692,0.38654 3.06757,1.3199 3.35699,2.07413 0.28943,0.75422 1.12457,1.37132 1.85588,1.37132 0.75838,0 1.46428,1.353 1.64301,3.14915 0.1875,1.88431 1.11665,3.5913 2.31336,4.25 1.1,0.60547 2.22893,1.40174 2.50874,1.7695 0.2798,0.36775 2.0798,0.81775 4,1 2.27368,0.21579 3.50048,0.85448 3.51769,1.83135 0.0145,0.825 0.35938,2.03141 0.76631,2.6809 0.40694,0.6495 0.2487,1.48447 -0.35163,1.8555 -0.71159,0.43978 -0.31705,1.49898 1.13348,3.043 1.98819,2.11632 2.04669,2.43683 0.54968,3.01128 -1.38588,0.53182 -1.45495,0.90995 -0.39979,2.18872 1.03517,1.25456 1.03212,1.62774 -0.0162,1.98047 -0.99232,0.33388 -1.02188,0.75978 -0.12755,1.83738 0.73955,0.8911 0.82539,1.85868 0.23535,2.65275 -0.51086,0.6875 -0.88128,2.57782 -0.82317,4.20072 0.0581,1.6229 -0.67967,3.73606 -1.63952,4.69591 -1.26468,1.26468 -1.59142,2.69275 -1.1867,5.1867 0.42623,2.6266 0.078,3.92203 -1.47076,5.47076 -1.11608,1.11608 -1.77762,2.28087 -1.47008,2.58841 0.30755,0.30754 0.0263,1.20128 -0.62507,1.98609 -0.91938,1.10779 -0.89534,1.54346 0.1075,1.94803 0.83366,0.33632 0.93712,0.81408 0.29174,1.34725 -0.55,0.45437 -1.13902,1.72613 -1.30894,2.82613 -0.16991,1.1 -1.10266,3.125 -2.07278,4.5 -0.97011,1.375 -2.40344,3.9625 -3.18517,5.75 -1.03908,2.37593 -2.09527,3.27123 -3.92722,3.32895 -1.37824,0.0434 -1.94339,0.30592 -1.25589,0.58333 1.88994,0.76261 1.50594,2.12802 -1,3.55578 -1.2375,0.70507 -2.25,1.95694 -2.25,2.78194 0,0.825 -0.675,1.41017 -1.5,1.30038 -0.825,-0.1098 -2.43628,1.2402 -3.58062,3 -1.14434,1.75979 -2.61936,3.08295 -3.27782,2.94034 -1.08968,-0.23598 -1.45305,0.37488 -2.74933,4.6219 -0.32054,1.05021 -0.73669,1.0964 -1.81504,0.20145 -0.99034,-0.82192 -1.59437,-0.84529 -2.06734,-0.08 -0.44576,0.72125 -1.76948,0.40055 -3.97628,-0.96333 -3.11614,-1.92587 -7.17568,-1.86871 -5.96881,0.084 0.3043,0.49237 0.14557,0.89522 -0.35273,0.89522 -1.51282,0 -5.22477,3.65392 -4.47432,4.40437 0.38573,0.38574 -0.0725,0.40441 -1.01819,0.0415 -1.24342,-0.47714 -1.72376,-0.14568 -1.73483,1.19715 -0.0131,1.58573 -0.17028,1.63788 -1.07613,0.35699 -0.94295,-1.33333 -1.01588,-1.33333 -0.65636,0 0.22245,0.825 1.38171,1.6438 2.57613,1.81955 1.19442,0.17575 2.17167,0.73825 2.17167,1.25 0,0.51175 0.70156,0.93045 1.55902,0.93045 0.85746,0 1.31241,0.39901 1.01101,0.88669 -0.30141,0.48768 0.12204,1.44278 0.94098,2.12245 1.00214,0.8317 1.48899,0.87575 1.48899,0.13474 0,-1.50115 4.95297,0.59164 7.16029,3.02546 0.91316,1.00687 1.92566,1.83066 2.25,1.83066 1.34484,0 4.72208,4.29595 7.25599,9.22983 1.48864,2.89859 3.52272,6.34336 4.52017,7.65503 0.99745,1.31167 1.81355,3.07624 1.81355,3.92126 0,0.84502 0.72,2.33199 1.6,3.30438 0.88,0.97239 1.6,3.43675 1.6,5.47636 0,2.03962 0.76793,5.10446 1.70651,6.81077 0.93858,1.7063 1.61471,4.79182 1.50251,6.85671 -0.1122,2.06489 0.20721,4.00848 0.7098,4.3191 0.50259,0.31061 0.67661,0.94855 0.3867,1.41762 -0.2899,0.46908 -0.76403,3.92549 -1.05361,7.68091 -0.28959,3.75541 -0.71708,8.48392 -0.94998,10.50777 -0.2329,2.02386 0.003,3.82386 0.5249,4 0.52709,0.178 0.28756,1.5926 -0.53924,3.18457 -0.81817,1.57537 -1.48759,3.61274 -1.48759,4.52749 0,0.91475 -0.70052,2.66332 -1.5567,3.88569 -0.87255,1.24574 -1.0923,2.22251 -0.5,2.22251 0.58118,0 1.0567,-0.5051 1.0567,-1.12244 0,-0.792 0.42748,-0.76768 1.45201,0.0826 0.79861,0.66279 2.29858,0.93638 3.33327,0.60798 1.03469,-0.3284 3.81286,0.0844 6.17371,0.91738 2.36086,0.83296 6.23433,1.51447 8.60772,1.51447 2.37339,0 4.61956,0.49238 4.99149,1.09417 0.37193,0.60179 1.76406,0.88622 3.09363,0.63206 1.32956,-0.25417 2.23378,-0.27851 2.00937,-0.0541 -0.2244,0.22441 1.91928,2.75397 4.76374,5.62125 6.91688,6.97236 6.84708,6.79218 7.96086,20.54842 0.37147,4.58799 0.71492,8.63799 0.76322,9 0.0483,0.36201 0.0337,0.79697 -0.10711,1.1582 -0.80187,2.05678 -1.31054,4.99435 -1.34682,7.77778 -0.0235,1.80277 -0.41672,1.48669 -0.74391,2.14323 -0.15813,0.31731 0.25315,0.79264 -0.63886,0.98195 -0.37621,0.60872 -0.45106,0.16598 -0.58513,0.9003 -0.0521,0.28524 -0.25816,0.17907 -0.74263,0.68717 -0.43248,0.45357 -0.35784,-0.0516 -0.66596,0.89743 -0.31216,0.96149 -0.20602,0.77316 -0.22528,1.16979 -0.0334,0.68828 -0.15481,0.85715 0.19242,2.05829 0.143,0.49469 -0.42203,1.27822 -0.89555,2.24755 -0.88043,1.80233 -0.25484,1.80931 -2.10364,2.00505 -0.26599,0.0282 0.44276,-0.20257 -1.17031,0.10247 -0.97461,0.1843 -1.19198,1.67998 -0.96659,2.29972 0.22539,0.61973 -1.01695,0.42266 -2.90511,3.15273 -2.25936,3.26679 -3.52602,1.58301 -4.03544,3.64173 -0.54849,2.21667 0.58003,0.14982 -0.11326,1.62782 -1.05669,2.25269 -0.47931,1.15177 -0.88709,1.80055 0,0 -0.22285,0.54501 -0.88857,0.87087 -0.44625,0.21842 1.17998,-0.12796 -2.60139,0.47671 -0.63646,0.29734 -0.46202,-0.80807 -3.19227,1.72224 l -2.76552,2.563 -22.1305,-0.23761 c -15.88014,-0.1705 -23.06085,-0.62092 -25.42453,-1.59481 -1.81171,-0.74645 -3.73536,-1.08443 -4.27478,-0.75105 -0.53941,0.33338 -0.8571,0.0102 -0.70598,-0.71819 0.16117,-0.77676 -0.44879,-1.20284 -1.47522,-1.03049 -0.9625,0.16161 -1.75,-0.25089 -1.75,-0.91667 0,-0.66578 -0.27444,-0.93607 -0.60986,-0.60064 -0.78027,0.78026 -7.41837,-3.39567 -10.84536,-6.82266 -1.44854,-1.44854 -3.25963,-2.39353 -4.02464,-2.09997 -0.76501,0.29356 -1.5575,0.034 -1.76109,-0.57674 -0.20359,-0.61077 -1.78787,-1.11049 -3.52062,-1.11049 -1.73275,0 -2.90921,-0.39034 -2.61436,-0.86741 0.29485,-0.47708 -0.35864,-1.51606 -1.91518,-1.22854 -1.55654,0.28751 -11.53389,1.69766 -21.70889,2.05337 -14.52324,0.50772 -19.12609,-3.02326 -21.87373,-1.66976 -1.925,0.94825 -7.96545,6.36524 -12.49725,8.6425 -4.53181,2.27733 -8.72086,4.14055 -9.30903,4.14055 -0.58816,0 -0.1631,1.70754 0.17292,2.25124 0.3629,0.58718 -0.0858,0.72119 -1.10503,0.33006 -1.25638,-0.48212 -1.49674,-0.30375 -0.89743,0.66596 0.5495,0.88911 0.43265,1.08594 -0.3555,0.59884 -1.02239,-0.63187 -5.26154,0.26637 -10.13496,2.1475 -3.07686,1.18766 -31.55601,0.75877 -37.7587,-0.56864 z"
               id="path3028"
               style="fill:#ff0000;fill-opacity:1;stroke:#000000;stroke-width:0.69999999;stroke-miterlimit:4;stroke-opacity:1;stroke-dasharray:none"
               inkscape:connector-curvature="0"
               sodipodi:nodetypes="cssssssssssssssscsssssscssscsssssscsssssssssssssssssssscssssssscsscsccsssssssssscssssscscssssssssssccssssscssscscsssscssccssssscsssssssssssccsscssssssssssscsssssscsssasssssssscscscssscsscsscssssscsscssssc" />
            <path
               d="m 335.35714,412.00504 c 7.82838,2.22626 13.55258,9.07397 16.11064,16.58597 1.77331,5.10242 2.2904,10.63429 1.66409,15.98751 -0.69791,5.10295 -3.46584,10.04442 -8.00784,12.65844 -7.35888,4.77106 -18.18995,4.75934 -24.65496,-1.57547 -4.82902,-5.00061 -6.04119,-12.54296 -4.81793,-19.19027 1.46182,-8.18673 6.2227,-15.59326 12.57325,-20.87012 2.41956,-1.79458 5.22351,-3.69025 8.38275,-3.41755"
               id="path3800"
               style="fill:#000000;fill-opacity:1;stroke:#000000;stroke-width:0.69999999;stroke-linecap:butt;stroke-linejoin:miter;stroke-miterlimit:4;stroke-opacity:1;stroke-dasharray:none"
               inkscape:connector-curvature="0" />
            <path
               d="m 310.53571,412.36218 c -1.40641,-1.17116 -3.58861,-1.66135 -5.16196,-0.51893 -2.22395,1.52051 -3.19556,4.27879 -3.55744,6.84075 -0.33384,2.53795 0.27807,5.51425 2.44186,7.10488 1.90236,1.39111 4.56075,0.65579 6.25684,-0.72054 1.97274,-1.54803 3.35558,-4.07045 3.02805,-6.62562 0.37908,-2.01145 -0.015,-4.50186 -1.88689,-5.65872 -0.34622,-0.20237 -0.72717,-0.34426 -1.12046,-0.42182 z"
               id="path3843"
               style="fill:#000000;fill-opacity:1;stroke:#000000;stroke-width:0.69999999;stroke-linecap:butt;stroke-linejoin:miter;stroke-miterlimit:4;stroke-opacity:1;stroke-dasharray:none"
               inkscape:connector-curvature="0" />
            <path
               d="m 362.32143,415.04075 c 1.82028,-0.2869 3.79491,0.35598 4.9485,1.82847 1.8159,2.28393 2.02126,5.56951 0.97481,8.2301 -0.74786,1.96459 -2.45847,3.56523 -4.53699,3.99866 -2.04621,0.51877 -4.27055,-0.27745 -5.67674,-1.81667 -2.21845,-2.35017 -3.09901,-6.10321 -1.64239,-9.07066 0.7981,-1.56589 2.2933,-2.80679 4.01266,-3.20954 0.63251,-0.12753 1.2939,-0.11857 1.92015,0.0396 z"
               id="path3860"
               style="fill:#000000;fill-opacity:1;stroke:#000000;stroke-width:0.69999999;stroke-linecap:butt;stroke-linejoin:miter;stroke-miterlimit:4;stroke-opacity:1;stroke-dasharray:none"
               inkscape:connector-curvature="0" />
            <path
               d="m 313.21429,418.25504 c -0.65312,0.86871 -1.78813,1.29333 -2.8566,1.15862 -1.51532,-0.1724 -2.94976,-1.09631 -3.68229,-2.44106 -0.48041,-0.86232 -0.47858,-1.97724 0.0673,-2.80913 0.63734,-1.05476 1.94102,-1.71218 3.16653,-1.43208 1.54168,0.34032 2.74335,1.63795 3.2515,3.09573 0.26622,0.77734 0.31965,1.64275 0.0536,2.42792 z"
               id="path3876"
               style="fill:#ffffff;fill-opacity:1;stroke:#000000;stroke-width:0.69999999;stroke-linecap:butt;stroke-linejoin:miter;stroke-miterlimit:4;stroke-opacity:1;stroke-dasharray:none"
               inkscape:connector-curvature="0" />
            <path
               d="m 368.21429,421.46932 c -0.55015,0.72499 -1.45802,1.18031 -2.37461,1.09864 -1.30459,-0.10649 -2.47133,-0.95018 -3.16425,-2.03402 -0.49974,-0.77749 -0.73307,-1.82753 -0.25762,-2.67243 0.38894,-0.68396 1.10834,-1.14173 1.85648,-1.33873 0.96656,-0.2404 1.98591,0.18488 2.64956,0.89186 0.93289,0.98053 1.46507,2.36797 1.3435,3.72376 -0.012,0.11111 -0.0295,0.22166 -0.0531,0.33092 z"
               id="path3895"
               style="fill:#ffffff;fill-opacity:1;stroke:#000000;stroke-width:0.69999999;stroke-linecap:butt;stroke-linejoin:miter;stroke-miterlimit:4;stroke-opacity:1;stroke-dasharray:none"
               inkscape:connector-curvature="0" />
            <path
               d="m 303.04576,597.66727 c 0.89898,4.35249 2.17849,8.87576 1.08581,13.31695 -0.98289,3.59314 -0.74817,7.37439 -1.46656,11.01441 -0.0643,0.90932 -0.11707,1.84689 -0.50302,2.68838"
               id="path6133"
               style="fill:none;stroke:#000000;stroke-width:0.69999999;stroke-linecap:butt;stroke-linejoin:miter;stroke-miterlimit:4;stroke-opacity:1;stroke-dasharray:none"
               inkscape:connector-curvature="0" />
            <path
               d="m 349.51278,594.76308 c -1.58181,2.33253 -1.39144,5.56411 -3.53003,7.56876 -0.74878,3.62541 -0.71177,7.35102 -1.21455,11.00843 -0.10351,3.82135 -0.0162,7.71947 1.08376,11.4103"
               id="path6143"
               style="fill:none;stroke:#000000;stroke-width:0.69999999;stroke-linecap:butt;stroke-linejoin:miter;stroke-miterlimit:4;stroke-opacity:1;stroke-dasharray:none"
               inkscape:connector-curvature="0" />
          </g>
          <path
             d="m 409.49059,562.817 c -6.67512,0.0141 -12.72539,2.68679 -18.37595,5.87319 -5.33515,2.18172 -7.45099,7.69796 -12.7301,9.94852 -4.12835,4.17446 -7.57404,7.9756 -11.12192,12.52392 -2.6138,5.46222 -7.29966,10.95705 -13.63968,6.46078 -4.52118,-3.54734 -10.14186,-6.62102 -12.94899,-11.82544 -2.65925,-5.83356 -3.26085,-12.84467 -1.90417,-19.32125 0.65245,-6.59597 4.3386,-12.21307 7.7841,-17.72679 2.52977,-5.2597 6.29469,-8.24419 7.64728,-13.87964 2.44434,-5.87935 2.40037,-12.09314 2.93216,-18.33486 0.0486,-2.55913 0.45478,-5.2273 -0.67574,-7.63532"
             id="path6125"
             style="fill:none;stroke:#000000;stroke-width:0.69999999;stroke-linecap:butt;stroke-linejoin:miter;stroke-miterlimit:4;stroke-opacity:1;stroke-dasharray:none"
             inkscape:connector-curvature="0" />
          <path
             d="m 247.99245,560.54416 c 6.76369,0.22082 13.24135,2.3829 18.17002,6.74782 3.36251,5.76075 8.86908,9.4273 12.13456,15.223 3.40989,5.65472 7.64278,11.01568 10.16352,16.76182 5.33282,4.95503 12.09713,-2.9069 18.35687,-2.90228 3.07966,-5.12791 6.1634,-10.09309 10.89959,-13.65497 3.57662,-4.51201 1.53442,-12.1972 3.96354,-17.84779 0.65412,-6.29983 -5.71452,-10.1283 -7.74494,-15.55479 -5.11189,-5.20658 -9.57769,-10.17315 -13.01542,-16.77188 -3.03275,-6.36273 -3.86358,-13.67482 -2.19127,-20.51204 1.29002,-1.18262 1.10017,-2.57287 1.53892,-3.89055"
             id="path6127"
             style="fill:none;stroke:#000000;stroke-width:0.69999999;stroke-linecap:butt;stroke-linejoin:miter;stroke-miterlimit:4;stroke-opacity:1;stroke-dasharray:none"
             inkscape:connector-curvature="0" />
          <path
             d="m 264.49757,451.68163 c -0.83348,-0.36325 -1.85626,-1.07502 -2.27284,-1.58172 -0.41658,-0.5067 -1.7802,-1.5663 -3.03026,-2.35468 -2.64376,-1.66732 -6.90902,-7.0392 -7.34147,-9.24618 -0.59726,-3.04812 -3.54506,-8.15921 -6.60743,-11.45641 -4.03542,-4.34485 -6.20805,-8.31132 -8.70689,-15.89577 -1.7921,-5.43936 -2.03866,-6.78071 -2.18289,-11.87582 l -0.1626,-5.74387 2.14733,-3.61858 c 1.49005,-2.51097 2.45643,-4.98256 3.15715,-8.07469 0.5554,-2.45086 1.46859,-5.37083 2.02932,-6.48881 l 1.01951,-2.0327 6.17741,-0.24014 c 3.39757,-0.13208 8.19146,-0.18277 10.65308,-0.11265 4.44806,0.12672 11.48416,1.5513 13.68386,2.77053 0.63259,0.35063 2.29197,1.25362 3.68752,2.00665 3.98522,2.1504 4.30748,2.61329 3.37531,4.84826 -0.42755,1.0251 -1.42299,2.54567 -2.2121,3.37904 -1.43662,1.51721 -3.05975,6.05037 -3.05975,8.54542 0,0.72538 -0.68185,2.52705 -1.51523,4.00371 -0.83337,1.47666 -1.51523,3.19279 -1.51523,3.81363 0,0.62083 -0.27818,1.62523 -0.61819,2.232 -0.58367,1.04162 -1.16789,5.63751 -2.41505,18.9987 -0.45164,4.83847 -0.70286,5.88848 -1.551,6.48254 -0.89587,0.62749 -0.97423,1.0664 -0.68253,3.8228 0.18125,1.71265 0.64492,3.6173 1.03039,4.23256 0.38547,0.61526 0.70085,2.16071 0.70085,3.43435 0,1.27363 0.31405,2.92943 0.69789,3.67957 0.38384,0.75013 0.85915,2.33434 1.05624,3.52046 0.19709,1.18612 0.69477,2.49301 1.10595,2.90419 0.66009,0.66009 0.40341,0.74529 -2.19266,0.72783 -1.61715,-0.0109 -3.62221,-0.31697 -4.45569,-0.68022 l 0,0 z"
             id="path6163"
             style="fill:#ffffff;fill-opacity:1;fill-rule:nonzero;stroke:#000000;stroke-width:0.35355338;stroke-miterlimit:4;stroke-opacity:1;stroke-dasharray:none"
             inkscape:connector-curvature="0" />
          <path
             d="m 396.41236,460.39021 c -0.50626,-0.28797 -1.47514,-0.38438 -2.15306,-0.21422 -0.97746,0.24532 -5.45503,-1.12035 -6.703,-2.04444 -0.099,-0.0733 0.62934,-0.96678 1.61864,-1.98543 1.35515,-1.39535 1.87342,-2.4304 2.10166,-4.19725 0.16662,-1.28984 0.76652,-4.0498 1.3331,-6.13324 0.56659,-2.08344 1.5235,-5.60635 2.12647,-7.82868 0.85499,-3.15121 1.06501,-5.15235 0.95413,-9.09137 -0.24568,-8.72732 -0.64405,-14.10608 -1.12226,-15.15229 -0.25394,-0.55559 -0.53774,-2.64127 -0.63065,-4.63486 -0.11344,-2.43421 -0.43818,-3.92719 -0.98873,-4.54568 -0.58913,-0.66183 -0.91354,-2.41327 -1.15292,-6.22429 l -0.3331,-5.3033 1.6724,-2.61886 c 0.91982,-1.44037 2.52021,-3.145 3.55641,-3.78807 1.0362,-0.64307 2.0247,-1.58971 2.19666,-2.10365 0.17195,-0.51394 1.30987,-1.37556 2.5287,-1.9147 1.21883,-0.53915 2.45435,-1.42554 2.74561,-1.96975 0.39448,-0.73711 1.07253,-0.99386 2.65836,-1.00663 1.17084,-0.009 3.03794,-0.45628 4.14911,-0.99301 1.11116,-0.53674 2.62785,-0.98359 3.37041,-0.99302 0.79847,-0.0101 1.94627,-0.6133 2.80919,-1.47622 l 1.45909,-1.45909 1.98903,1.20358 c 1.09397,0.66197 3.29507,1.4616 4.89135,1.77697 2.77989,0.5492 2.9243,0.65506 3.42363,2.50943 0.28673,1.06482 0.376,2.51507 0.19837,3.22277 -0.23988,0.95577 0.0373,1.75897 1.07743,3.12273 1.2757,1.67252 1.32566,1.89062 0.56112,2.44967 -0.98074,0.71713 -1.09884,2.31355 -0.23507,3.17733 0.46889,0.46888 0.40779,0.74782 -0.2728,1.24548 -0.81374,0.59502 -0.81889,0.75778 -0.0714,2.25615 0.54968,1.10185 0.65784,1.90156 0.34048,2.51733 -0.25581,0.49636 -0.62128,2.15254 -0.81214,3.6804 -0.20022,1.60272 -0.86987,3.5746 -1.58291,4.66112 -1.00727,1.53485 -1.23588,2.52258 -1.23588,5.3396 0,3.05151 -0.17585,3.68879 -1.50118,5.4404 -0.82565,1.0912 -1.5075,2.3088 -1.51523,2.70576 -0.008,0.39697 -0.29148,1.48898 -0.63057,2.4267 -0.5085,1.40624 -0.49207,1.78186 0.0938,2.14394 0.51371,0.31749 0.56277,0.62439 0.17726,1.10883 -0.29318,0.36842 -0.80141,1.50347 -1.12941,2.52235 -0.54409,1.69015 -3.63547,7.55893 -5.93115,11.25991 -0.6016,0.96988 -1.5138,1.61512 -2.59487,1.83549 -2.15117,0.43849 -2.32413,0.65034 -1.54695,1.89481 0.56684,0.90765 0.47994,1.16021 -0.72534,2.10829 -2.14287,1.68558 -2.87911,2.52914 -2.87911,3.29881 0,0.39155 -0.57263,0.85563 -1.27252,1.03129 -0.69989,0.17566 -2.31849,1.5437 -3.59689,3.04008 -1.32232,1.5478 -2.7445,2.7207 -3.29893,2.7207 -0.65584,0 -1.22039,0.61945 -1.72618,1.89404 -1.49574,3.76925 -1.40087,3.64682 -2.39016,3.08409 l 0,0 z"
             id="path6165"
             style="fill:#ffffff;fill-opacity:1;fill-rule:nonzero;stroke:#000000;stroke-width:0.35355338;stroke-miterlimit:4;stroke-opacity:1;stroke-dasharray:none"
             inkscape:connector-curvature="0" />
        </g>
        <path
           d="m 327.4876,492.39499 c 2.2644,2.66632 6.07748,3.19909 8.63579,5.43274 2.86007,2.28019 6.66345,0.59268 9.87447,1.65009 3.09838,0.67486 5.93629,2.75922 9.39536,2.88839 3.32499,0.37833 6.55094,0.57956 9.53617,1.55177 2.6564,0.95363 5.25607,-2.99638 7.07288,-0.0245 3.26765,2.24544 7.81367,0.6425 11.58781,1.00892 3.32915,0.008 5.80304,-2.7396 9.17467,-2.25665 3.08744,-0.22194 6.69298,0.88515 9.12364,-1.39255 3.30181,0.0682 6.36091,-0.78244 9.0003,-2.76185 1.51143,-1.14436 3.49477,-0.47019 5.25963,-0.64998 0.0806,-1.61182 2.11123,-1.97141 2.85714,-3.21429"
           id="path6159"
           style="fill:none;stroke:#000000;stroke-width:0.69999999;stroke-linecap:butt;stroke-linejoin:miter;stroke-miterlimit:4;stroke-opacity:1;stroke-dasharray:none"
           inkscape:connector-curvature="0" />
      </g>
    </g>
  </g>
</svg>
